<svg xmlns="http://www.w3.org/2000/svg" viewBox="0 0 870.51 270.13"><defs><style>.cls-1{fill:#88afe0;}.cls-2{fill:#fff;}.cls-3{fill:#aaa;}</style></defs><g id="Layer_2" data-name="Layer 2"><g id="Layer_1-2" data-name="Layer 1"><circle class="cls-1" cx="87.98" cy="57.5" r="57.5"/><path class="cls-1" d="M70.23,20.83c2.48,2.57,3.74,5.89,5.11,8.79,7-3.58,15.8-2.79,23.33-1.48,0,.21.06.27.16.37,1.16-.84.74-2.21,1.48-3.53,4.63-6.16,12.53-8.53,20.12-7.37,6,1.9,9.64,7.22,11.06,13.17a16.17,16.17,0,0,1-6.37,14.63c6.48,6.06,13.06,12.53,14.37,21.17,1.48,6.68.32,13.9-5,18.58A19.32,19.32,0,0,1,126,89.27a3.59,3.59,0,0,1-3.16.63l-.16-.1v.84c4.9,10.27,8.59,21.06,12.43,31.75,8.69-4.48,22.13-6.79,30.4,0,7.53,6.58,10.79,16.58,7.74,26.27a36,36,0,0,1-2.79,9,21.73,21.73,0,0,1,14.06,8.53c.63,2.9,1.21,5.74-1.26,7.8l-2.48,1.52a6.56,6.56,0,0,1-1.9,5.11c-1.26,1.26-3.1,1.11-4.63,1.63a3.55,3.55,0,0,1-2,4c-6.27,2.11-13-1-19.86-.73v-.16l-5.43-.47c-8.64,4.89-16.54,11.11-26.86,11.53,3.53,8.11,10.37,15.63,13.69,24.22,4.38,6.74,7.69,14.74,6,23.16-2.79,13.53-18,19.22-29.18,23.7-9.8,2.21-17.91,1.89-27.87,2.63-16.27-1.69-31.5-3.58-45-13.53l-.53.21h.27c-1.79-1.16-3.48-3.79-4.8-5.27-1.52-3.47-4-6.84-4.58-10.53-.32-4.58.21-9.69,2.32-13.74.21-2.16,1.47-3.63,2.05-5.53,1.06-4,5.27-5.53,6.9-9.16,6.43-5.05,11.17-12.79,16.28-19.16a75,75,0,0,1-18.44-8.8c-2.16.69-4.74-2.1-6.63.37-6.38.32-12.28,2.79-18.6,3.69a5.82,5.82,0,0,1-4.37-2.27c-1.53-1.52-1.63-4.1-.89-6.16-1-1.47-2.64-3-3.38-4.74-1.31-2.26,2.74-5.21-.73-6.16a7.16,7.16,0,0,1-2-8.42,9.45,9.45,0,0,1,7.17-6.11c-2.63-8.11-1.27-18,1.21-25.8,2.74-5.31,6.58-11.9,13.17-12.42,7.11-2.32,13.85,1.05,19.7,3.16C45.26,109.23,50,99.38,55.27,89.53c-5.37-3.79-12.48-5.26-15.54-12.26C34.31,65.26,43.37,54.47,50,45c-3.68-3.47-9-7.89-7.27-13.69.85-3.68,2.64-7.63,5.54-9.89C53.11,19.19,58,15.19,63.8,17.3c2.53.47,4.06,2.42,6.43,3.53"/><path class="cls-2" d="M66.91,22.35c2.63,3.37,5.22,6.79,5.27,11.27a7.66,7.66,0,0,0-2.64,1.89c-.05,1.06,0,2.69.9,3.16.63.37,1.58-.47,1.74-1.16,5.79-4.68,13.75-6.1,21.22-5.89-.15,0-.2.16-.36.26.31.26.79.05,1.26.11-.1.37.11.52.37.73,5.37-.42,9.48,1.79,14,4.06.84-.53,1.42-1.27.9-2.27l-2.64-2.15c.58-.48-.37-.79-.37-1.22-.94-.47-1.68-1.31-2.79-1.26.69-.63-.47-.53-.37-1.16-.47-2.95,3-4.68,4.9-6.37,4.43-1.84,10.48-3,14.75,0A13.14,13.14,0,0,1,127.43,34a13.43,13.43,0,0,1-4.74,9.42,2.84,2.84,0,0,0-2.84-.52,1.53,1.53,0,0,0-.9,1.79c4.11,2.26,6.8,7.32,10.54,9.79a24.74,24.74,0,0,1,5.84,23.69c-1.73,4-5.53,7.74-9.85,8.48-1.52.37-3-.21-4.16.89-1-1.47-1.68-4.68-3.9-4.1-.57,0-1,.63-1.26,1.1.63,3.27,3,5.37,4.27,8.37a225.92,225.92,0,0,1,12.43,32.65v2.1l-.16-.15c.37,4.52,1.32,10.05,1.21,15.05l1.05.74c-.05-1.16,1.48.11,1.27-1.1h.32c.42-5.53.84-11.9-.32-16.64a31.63,31.63,0,0,1,16.8-4.42c6.53-.27,12.54,3.84,15.33,9.16,5.37,11.84.37,24.32-5.79,34.17-8.33,12.53-21.44,20.64-34.08,26.69-2.74,1.11-5.8,2.27-8.8,1.63,0,.58-.74.48-1.26.48-2.32-5.85-5.32-10.79-5.59-17.54a.75.75,0,0,0,.32-.89,23.61,23.61,0,0,1-5.32-3.11,11,11,0,0,0-6.53-1.47c-8.54-4.84-17.91-3.58-26.71-1.05-4.37,2.15-9.27,4.21-11.69,8.79-1.06,4.68-4.37,8.48-5.85,12.79-1.42-2.31-4.32-1.84-6.32-3.16-6.27-2.26-11.53-6.84-17.91-8.89-13.59-8.9-25.39-22.38-22.6-40.18A31.16,31.16,0,0,1,17,122.23c6.9-5.53,16.59-2.84,23.7.69-.16.84-.37,1.73-.52,2.63.1.21.31.21.52.21-.52,4.69-.42,9.21-.63,13.16a13.77,13.77,0,0,1,1.16,2.64l.58-.74c0,.21-.21.58.16.74s.63-.22.47-.53h-.11v-.58h.11c0,.42,0,.89.37,1.11.74-7.53.32-15.49,3.16-22.17,1-.21.37-1.21.53-1.9l-.32-.73c4.85-10.17,7.27-21.43,16.33-29.49-.53-1.79,2.89-3.26.89-4.53-3.58-.73-4.79,7-8.16,3.16A63.64,63.64,0,0,1,46.89,81c-3.73-3.58-6-8.06-5-13.38C43.79,57.15,51,47.89,59,40.78c.53-1-.95-1.74-1.58-2.11-1.84.74-3.9,1.74-4.9,3.74-2.63-1.58-5.27-4.21-6.16-7-.37-3.43.31-7.16,2.79-9.27C49.58,24.2,52,23.83,53,22.56c3.53-2.79,10.12-3.1,13.91-.21"/><path class="cls-2" d="M8.76,157.46c1.05,2.16,1.89,4.37,3,6.47A12.3,12.3,0,0,0,5.6,168c-1.69-1.16-1.79-3.11-1.9-4.9.47-2.58,2.16-5.48,5.06-5.63"/><path class="cls-2" d="M181.9,169.56c-.32,1.32-.74,2.64-2,3.32-1.9-4.68-6-6.42-10.33-8.21-.74-.37-2.53.1-2.11-1.11l1.74-3.26c4.85.95,11.86,3.53,12.7,9.26"/><path class="cls-2" d="M17.24,170.25v.37a15,15,0,0,0-9.48,5.63c-1.69-2.63.21-4.9,1.37-7.16,1.1-1.63,3-2,4.74-2.53a25.21,25.21,0,0,0,3.37,3.69"/><path class="cls-2" d="M176.74,174.36a4,4,0,0,1-.11,3.79c-.74,1.47-1.79.58-2.9,1.1-.94-5.16-6.58-7.32-10.64-9,1.37-.95,1.95-5.42,4.17-2.95,3.58.9,8.42,3,9.48,7.06"/><path class="cls-2" d="M107.58,175.72l1.47,1c2.79,15.32,11.43,28,19.28,40.91,3.79,7.89,10.32,15.79,7.69,25.27-1.32,9.74-11.33,14.43-19,18.8-10.17,5.52-21.81,3.89-32.56,5.42C70.6,266,57,264.5,44.74,257.12c-6.64-2.94-10.06-9.63-12.44-15.79-.94-7.37,1.85-14.32,5.43-20,4.27-7.52,11.69-12.53,16.7-19.53,4.69-7.11,10.74-13.16,12.27-21.59.58-4.37,5.32-5.52,8.48-7.9a34,34,0,0,1,28.6,2.11l3.8,1.26"/><path class="cls-2" d="M170.63,179.88a4.46,4.46,0,0,1,.36,3.22c-2.58,2.63-5.26.68-8.11.52-3.63-.63-7.85-.89-11.74-1.37a123.15,123.15,0,0,0,10.32-10.05c3.69,2,8.32,3.1,9.17,7.68"/><path class="cls-2" d="M29.83,181.36c-2.27,0-2.9,2-5.27,1.53-2.11.79-3.9.52-6.16,1.63-2.27.1-4.58,1.1-7.17,1-1.79-1.16-1-3.85-.73-5.79.31-3.21,3.32-4.58,5.63-6.11,1.06-.32,2.22,0,3-.9,3.1,3.69,7.26,5.59,10.69,8.64"/><path class="cls-1" d="M97,183.78c-1.9,1.37-4.06,3.16-5.9,4.58l8.43,5.58,6-3.53a2.49,2.49,0,0,1,2.9,1.64c-.74,1.37-3,1.52-4.37,2.63l-1.9,1.21c2.27,2,5.06,4.05,6.48,6.53.21,1.32-1.58.58-1.58,1.74a43.85,43.85,0,0,0-7.53-6.48,95.39,95.39,0,0,0-12,11c.58,1.1,1.9,1.05,2.79,1.78l11.28,7.38c2.79-2.21,5.68-4,8.26-6.64,1.53-1,2.27.74,3.11,1.37-2.16,3-5.9,4.37-8.58,7.16,3.63,2.95,7.9,5.79,11.59,9.32,1.73-1.63,3.84-4.05,6.63-4.05a15.43,15.43,0,0,0,1.74,2c-1.79,1.21-4,2.26-5.74,4,1,2.42,5.37,4.47,4,8.06-.37,1-1.52.84-2.1,1.57-1.64-.42-.58-2.68-.9-3.36l-3.16-3.64a75,75,0,0,0-11.59,13.16c1.69,1.37,3.16,3,2,4.9-.73-.37-1,.69-1.1.9-1.11-.32-1.16-2.64-2.64-3.16a28.45,28.45,0,0,0-4.53,8.42c-.94.26-2.32,1-3.16,0L95,256.07a57.25,57.25,0,0,1,5.37-8.74l-.47-.89L88,237.8c-3.74,4.27-6.37,8.69-9.64,13.16,1,1.16,2.69,1.69,2.9,3.37-.32.74-.79,2.64-2,1.37l-2.53-2.26c-1.58,1.58-1.42,4.47-4.53,3.16-.79-.42-.74-1.53-.74-2.42a5.42,5.42,0,0,0,2.27-2.85c-4.32-3.52-9.33-6.21-14-9.26-1.85,1.47-2.43,4.31-5.06,3.1a2.51,2.51,0,0,1-.74-2.26,7.33,7.33,0,0,0,2.63-2.48c-4.84-2.89-10.16-4.73-15.27-7.16-.32-.42-.11-1-.16-1.58l.74-.68a90.44,90.44,0,0,1,16.7,7.16l9.64-11.9c-2.85-2.42-6.54-3.74-9.54-5.63-1,1.37-2.11.26-3.11.37a1.89,1.89,0,0,1-.52-2.27,2,2,0,0,1-.58-3.16c.94-.31,2,.32,2.84.9l12.43-13.9c-1-.74-2.26,0-2.63-1.42.21-.85.21-2.11,1.37-2.11,1.26-.16,2.53.79,3.74,1.26L85.5,188.89a14.33,14.33,0,0,0-7.37-3c-.84-.16-.58-1-.89-1.58.42-1.95,2.63-1.64,4-1.42l7.06,3.73L94.14,182c.58-.05.74.32,1.16-.1.53.47,1.74.84,1.74,1.89"/><path class="cls-2" d="M96.78,195.68C92.62,198.52,89,203,85,206.79c-3.11-.95-6.38-3.74-9.48-5.11,4.16-4.11,8.53-7.37,12.8-11.06a42,42,0,0,1,8.48,5.06"/><path class="cls-2" d="M70.23,223.48,60.43,218a119.71,119.71,0,0,1,12.43-13.84l9.48,5.26L70.23,223.48"/><path class="cls-2" d="M99.2,220a142.4,142.4,0,0,0-12.33,13.69l-13.43-8.26A145.43,145.43,0,0,1,85.5,211.21L99.2,220"/><path class="cls-2" d="M113.68,231c-3.74,4-8.27,8.58-11.37,13.32l-12.44-8.79c3.9-4.74,7.54-9.43,12.33-13.53l11.48,9"/><path class="cls-2" d="M85,236.06c-3,4.16-6.64,8.32-9.48,12.64-4.53-3.37-9.07-5.9-13.86-8.79,2.74-4,6.53-8.11,9.43-12.06L85,236.06"/><path class="cls-3" d="M121.43,264l-2.27.89,2.27-.89"/><path class="cls-2" d="M266.57,100.27q1.14-5.86-6.33-9.08l-8.5-3.53q-17.91-8-17-21.89a19.3,19.3,0,0,1,4.36-11.29,25.82,25.82,0,0,1,11-7.7,40.7,40.7,0,0,1,15.41-2.65q11.2.21,18,6.54t6.72,17H272.64a10.53,10.53,0,0,0-1.84-7q-2-2.62-6.56-2.73A13.79,13.79,0,0,0,256.35,60a8.4,8.4,0,0,0-4,5.86q-1,5.19,7.7,8.51a84.56,84.56,0,0,1,12.63,5.71q12.41,7.41,11.62,20a20.44,20.44,0,0,1-4.2,11.47,24.21,24.21,0,0,1-10.5,7.62,38.8,38.8,0,0,1-15.07,2.6,36.47,36.47,0,0,1-11.37-1.92,25.1,25.1,0,0,1-9-5.29q-7.58-7-7.26-18.42l17.79,0c-.21,3.88.54,6.81,2.23,8.79s4.55,3,8.56,3a12.83,12.83,0,0,0,7.45-2A8.54,8.54,0,0,0,266.57,100.27Z"/><path class="cls-2" d="M344.81,92.69a46.84,46.84,0,0,1-4.62,15.7,25.63,25.63,0,0,1-8.74,10.22,20.22,20.22,0,0,1-11.65,3.19A15.26,15.26,0,0,1,307.87,116l-5.08,26.3H285.72l13.49-77.72,15.77,0-.88,5.35q5.65-6.54,13.33-6.33,8.19.1,12.79,5.86t4.9,15.72A59.76,59.76,0,0,1,344.81,92.69Zm-16.6-7q-.27-8.56-5.81-8.71a10.06,10.06,0,0,0-9,4.41l-4,22.25q1.6,4.52,7.16,4.62,9.07.15,11.15-15.62C328.05,89.37,328.21,87.06,328.21,85.74Z"/><path class="cls-2" d="M379.52,120.71a15.07,15.07,0,0,1-.73-5.09A17.35,17.35,0,0,1,365,121.75a17,17,0,0,1-12.14-4.88,14.67,14.67,0,0,1-4.51-11.57,16.45,16.45,0,0,1,7.62-14q7.38-4.9,20.13-4.91l5.71.11.62-3.17.21-2.75c-.14-3.14-1.71-4.77-4.72-4.87q-5.61-.11-6.9,6.17l-17.12.05a16.26,16.26,0,0,1,3.68-9.83,21.87,21.87,0,0,1,9.32-6.43,32.3,32.3,0,0,1,12.53-2.1,25,25,0,0,1,11.17,2.67,16.66,16.66,0,0,1,7.19,7,17.9,17.9,0,0,1,1.82,10.35L395.44,110l-.26,3.22a14.2,14.2,0,0,0,1,6.53l-.05,1Zm-9.76-11.31q5.25.21,9.19-4.62l1.71-9-4.41,0a11.7,11.7,0,0,0-7.06,2.41,9.15,9.15,0,0,0-3.47,6.31,4.56,4.56,0,0,0,.8,3.5A4.1,4.1,0,0,0,369.76,109.4Z"/><path class="cls-2" d="M429.06,108.26a7.32,7.32,0,0,0,5.76-2,10.13,10.13,0,0,0,2.65-5.54l16-.05a21,21,0,0,1-3.66,11.05,22.09,22.09,0,0,1-9,7.55,26.75,26.75,0,0,1-12.16,2.52q-11.21-.21-17.28-8.07t-4.93-20.31l.16-1.25a37.59,37.59,0,0,1,4.77-15.07,27.35,27.35,0,0,1,10.09-10.14,26.13,26.13,0,0,1,14-3.37q9.81.21,15.49,6.25t5.47,16.31l-16,0q.27-8.86-6.38-9-9-.32-10.37,15.15l-.47,5.27,0,2Q423.1,108.1,429.06,108.26Z"/><path class="cls-2" d="M485,121.75a26.09,26.09,0,0,1-13.41-3.56,22.35,22.35,0,0,1-8.9-9.75,26.23,26.23,0,0,1-2.38-13.78l.15-1.45q1.41-13.84,9.63-21.92a26.63,26.63,0,0,1,20.15-7.75,21.75,21.75,0,0,1,12.35,3.66A20.49,20.49,0,0,1,510.15,77a30.11,30.11,0,0,1,1.56,14l-1,7.12H477.31a11,11,0,0,0,2.49,7.16c1.59,1.84,3.91,2.8,6.95,2.91q7.42.21,13.34-5.71l7.16,9.47a21.14,21.14,0,0,1-8.85,7.06A31.06,31.06,0,0,1,486,121.75ZM489.19,77a8.74,8.74,0,0,0-6.3,2.27q-2.67,2.37-4.65,8h17.07l.31-1.5a11.29,11.29,0,0,0,.11-3.41Q494.85,77.18,489.19,77Z"/><path class="cls-2" d="M540.76,120.71l13.07-75.54,24,0q14.22.06,21.22,5.4t6.38,15q-.76,11.94-13.07,16.91a12.88,12.88,0,0,1,6.88,5.63,16.5,16.5,0,0,1,2.1,9.78q-.74,10.95-8.64,16.86t-21.66,5.92Zm23.35-32.12-3.17,18.06,10.64,0a13.57,13.57,0,0,0,8.3-2.46,9.63,9.63,0,0,0,3.94-6.54q1.45-8.64-6.64-9Zm2-11.93,8.35,0q11.57-.25,13-8.89,1.24-8.53-8.82-8.59l-9.44,0Z"/><path class="cls-2" d="M634.87,121.75a26.12,26.12,0,0,1-13.41-3.56,22.35,22.35,0,0,1-8.9-9.75,26.23,26.23,0,0,1-2.38-13.78l.15-1.45q1.41-13.84,9.63-21.92a26.63,26.63,0,0,1,20.15-7.75,21.75,21.75,0,0,1,12.35,3.66A20.49,20.49,0,0,1,660,77a30.11,30.11,0,0,1,1.56,14l-1,7.12H627.14a11,11,0,0,0,2.49,7.16c1.59,1.84,3.91,2.8,7,2.91q7.42.21,13.34-5.71l7.16,9.47a21.14,21.14,0,0,1-8.85,7.06,31.06,31.06,0,0,1-12.43,2.67ZM639,77a8.74,8.74,0,0,0-6.3,2.27q-2.67,2.37-4.65,8h17.07l.31-1.5a11.29,11.29,0,0,0,.11-3.41Q644.68,77.18,639,77Z"/><path class="cls-2" d="M695.26,120.71a15.07,15.07,0,0,1-.73-5.09,17.35,17.35,0,0,1-13.75,6.13,17,17,0,0,1-12.14-4.88,14.67,14.67,0,0,1-4.51-11.57,16.46,16.46,0,0,1,7.63-14q7.37-4.9,20.13-4.91l5.7.11.63-3.17.2-2.75c-.14-3.14-1.71-4.77-4.72-4.87q-5.6-.11-6.9,6.17l-17.12.05a16.21,16.21,0,0,1,3.69-9.83,21.77,21.77,0,0,1,9.31-6.43,32.3,32.3,0,0,1,12.53-2.1,25,25,0,0,1,11.18,2.67,16.64,16.64,0,0,1,7.18,7,17.9,17.9,0,0,1,1.82,10.35L711.19,110l-.26,3.22a14.2,14.2,0,0,0,1,6.53l0,1Zm-9.75-11.31q5.24.21,9.18-4.62l1.71-9-4.41,0a11.72,11.72,0,0,0-7.06,2.41,9.15,9.15,0,0,0-3.47,6.31,4.6,4.6,0,0,0,.8,3.5A4.11,4.11,0,0,0,685.51,109.4Z"/><path class="cls-2" d="M743.4,99.7l14.06-35.13h18.42l-26.56,56.14H731.94l-9-56.14H740.5Z"/><path class="cls-2" d="M799,121.75a26.07,26.07,0,0,1-13.41-3.56,22.35,22.35,0,0,1-8.9-9.75,26.24,26.24,0,0,1-2.39-13.78l.16-1.45q1.39-13.84,9.62-21.92a26.65,26.65,0,0,1,20.16-7.75,21.75,21.75,0,0,1,12.35,3.66A20.49,20.49,0,0,1,824.13,77a30.11,30.11,0,0,1,1.56,14l-1,7.12H791.29a11,11,0,0,0,2.49,7.16c1.59,1.84,3.91,2.8,7,2.91q7.42.21,13.33-5.71l7.16,9.47a21.11,21.11,0,0,1-8.84,7.06A31.06,31.06,0,0,1,800,121.75ZM803.17,77a8.74,8.74,0,0,0-6.3,2.27q-2.67,2.37-4.65,8h17.07l.31-1.5a11.62,11.62,0,0,0,.11-3.41Q808.83,77.18,803.17,77Z"/><path class="cls-2" d="M868.28,80.4a48.24,48.24,0,0,0-5.29-.52q-7.68-.21-11.73,5.29l-6.33,35.54H827.86l9.76-56.14,15.93,0-1.3,7.37q5.49-8.51,13-8.51a24.11,24.11,0,0,1,5.29.73Z"/><path class="cls-1" d="M262.16,204.18a16.52,16.52,0,0,1-8.4-2.29,14.67,14.67,0,0,1-5.65-6.35,24.16,24.16,0,0,1-2.29-9.45,43.46,43.46,0,0,1,.76-9.84A33,33,0,0,1,250.12,166a25.57,25.57,0,0,1,6.08-7.56,20,20,0,0,1,13.47-4.65,15.13,15.13,0,0,1,11.61,5q4.34,4.89,4.73,13.21a43.06,43.06,0,0,1-.75,9.58,34.42,34.42,0,0,1-3.31,9.94,25.21,25.21,0,0,1-5.81,7.56A19.87,19.87,0,0,1,262.16,204.18Zm15.33-26.51.3-3.57a21,21,0,0,0-.64-6.79,8.92,8.92,0,0,0-2.84-4.75,8.24,8.24,0,0,0-5.07-1.74,11.41,11.41,0,0,0-7.53,2.39,17.59,17.59,0,0,0-5.33,7.69A40,40,0,0,0,254,183.83q-.34,6.16,1.88,9.71a7.69,7.69,0,0,0,6.68,3.67,11.51,11.51,0,0,0,9.61-4.38q3.79-4.54,5-12.8Z"/><path class="cls-1" d="M302.79,167l-.8,4.28a13.89,13.89,0,0,1,10.81-4.92q5.11.1,7.58,3.66T322.2,180l-3.94,23.55h-8l4-23.65a12.27,12.27,0,0,0,0-2.7q-.43-4-4.78-4.11-4.54-.06-8,4.48l-4.54,26h-8l6.3-36.46Z"/><path class="cls-1" d="M335.14,203.51h-8l9-51.75h8Z"/><path class="cls-1" d="M352.56,203.51h-8l6.34-36.46h8Zm-.51-45.79a4.42,4.42,0,0,1,4.48-4.55,4.27,4.27,0,0,1,3.25,1.2,4.12,4.12,0,0,1,1.3,3.08,4.27,4.27,0,0,1-1.26,3.17,4.64,4.64,0,0,1-3.22,1.31,4.32,4.32,0,0,1-3.24-1.16A4,4,0,0,1,352.05,157.72Z"/><path class="cls-1" d="M375.2,167l-.81,4.28a13.89,13.89,0,0,1,10.81-4.92c3.42.07,5.94,1.29,7.58,3.66s2.25,5.67,1.82,9.92l-3.94,23.55h-8l4-23.65a12.27,12.27,0,0,0,0-2.7q-.44-4-4.78-4.11-4.54-.06-8,4.48l-4.55,26h-8l6.3-36.46Z"/><path class="cls-1" d="M415.56,204.18a15.2,15.2,0,0,1-8.24-2.39,13.64,13.64,0,0,1-5.15-6.27,18.51,18.51,0,0,1-1.27-8.86l.1-1.38a24.45,24.45,0,0,1,3.26-10,18.54,18.54,0,0,1,6.58-6.72,16,16,0,0,1,8.56-2.19q6.84.13,10.26,5.1t2.58,12.92l-.48,3.51H408.82a9.9,9.9,0,0,0,1.75,7,6.93,6.93,0,0,0,5.66,2.72q5.16.18,9.5-4.48l4,4.25a15.38,15.38,0,0,1-6,5.07A18,18,0,0,1,415.56,204.18Zm3.4-31.26q-6.33-.21-9.5,9l15.13,0,.13-.7a10.7,10.7,0,0,0,0-3,6.22,6.22,0,0,0-1.89-3.77A5.93,5.93,0,0,0,419,172.92Z"/><path class="cls-1" d="M480.21,190.64q.75-4.86-5.29-7.21l-2.73-1q-7.6-2.67-10.81-6.3a11.27,11.27,0,0,1-2.9-8.46,12.71,12.71,0,0,1,2.85-7.36,16.57,16.57,0,0,1,6.79-4.9,22.06,22.06,0,0,1,9-1.62,18.07,18.07,0,0,1,8.15,2,13.27,13.27,0,0,1,5.46,5.29,14.66,14.66,0,0,1,1.75,7.74l-8.29,0a7.76,7.76,0,0,0-1.7-6q-1.93-2.13-5.84-2.22a10.87,10.87,0,0,0-6.66,1.85,7.39,7.39,0,0,0-3.18,5.19q-.67,4.27,5.73,6.74l2.52.91q7.73,2.76,10.78,6.48a11.94,11.94,0,0,1,2.7,8.81,13.23,13.23,0,0,1-2.73,7.23,15.39,15.39,0,0,1-6.62,4.77,24,24,0,0,1-9.31,1.61,19.3,19.3,0,0,1-8.75-2,14,14,0,0,1-7.93-13.51l8.32,0c-.18,2.79.51,4.94,2,6.44a9.45,9.45,0,0,0,6.68,2.32,11.62,11.62,0,0,0,6.75-1.71A7.22,7.22,0,0,0,480.21,190.64Z"/><path class="cls-1" d="M510.94,158.19l-1.55,8.86h6.23l-1,6.07h-6.27l-3.44,20.42a7.77,7.77,0,0,0,0,1.51c.13,1.46,1,2.23,2.7,2.29a15.42,15.42,0,0,0,2.83-.3l-.54,6.4a18.44,18.44,0,0,1-5,.71,7.44,7.44,0,0,1-6.25-2.85,10.3,10.3,0,0,1-1.64-7.36l3.41-20.82H494.5l1.08-6.07h5.79l1.55-8.86Z"/><path class="cls-1" d="M516.56,185.15a24.12,24.12,0,0,1,3.16-9.74,18.55,18.55,0,0,1,6.62-6.77,16.3,16.3,0,0,1,9-2.26,14,14,0,0,1,8.08,2.49,13.82,13.82,0,0,1,5,6.64,21.07,21.07,0,0,1,1.1,9.37,24.43,24.43,0,0,1-3.15,10.24,18.67,18.67,0,0,1-6.67,6.82,16.55,16.55,0,0,1-9,2.24,13.5,13.5,0,0,1-13-9.08,20.77,20.77,0,0,1-1.15-9.25Zm7.86,4.61a9.59,9.59,0,0,0,1.87,5.68,6,6,0,0,0,4.73,2.24,8.39,8.39,0,0,0,6.89-3.17,16.74,16.74,0,0,0,3.49-8.93l.2-3.3a11.64,11.64,0,0,0-1.72-6.77,6,6,0,0,0-5-2.59q-5.11-.13-8.08,5a18.68,18.68,0,0,0-2.26,7.21A28,28,0,0,0,524.42,189.76Z"/><path class="cls-1" d="M576.94,174.53a15,15,0,0,0-3.13-.33,9.36,9.36,0,0,0-8.36,4.34l-4.38,25h-8l6.3-36.46,7.58,0-.81,4.15c2.49-3.31,5.37-4.92,8.62-4.86a12.94,12.94,0,0,1,3.07.51Z"/><path class="cls-1" d="M592.81,204.18a15.2,15.2,0,0,1-8.24-2.39,13.64,13.64,0,0,1-5.15-6.27,18.51,18.51,0,0,1-1.27-8.86l.1-1.38a24.45,24.45,0,0,1,3.26-10,18.54,18.54,0,0,1,6.58-6.72,16,16,0,0,1,8.56-2.19q6.84.13,10.26,5.1t2.58,12.92l-.48,3.51H586.07a9.9,9.9,0,0,0,1.75,7,6.93,6.93,0,0,0,5.66,2.72q5.16.18,9.5-4.48l4,4.25a15.38,15.38,0,0,1-6,5.07A18,18,0,0,1,592.81,204.18Zm3.4-31.26q-6.33-.21-9.5,9l15.13,0,.13-.7a10.7,10.7,0,0,0,0-3,6.22,6.22,0,0,0-1.89-3.77A5.93,5.93,0,0,0,596.21,172.92Z"/></g></g></svg>